<svg id="Layer_5" enable-background="new 0 0 64 64" height="512" viewBox="0 0 64 64" width="512" xmlns="http://www.w3.org/2000/svg"><g><path d="m46 43.145v-2.145h-2v2.145c-1.155.366-2 1.435-2 2.709 0 1.088.604 2.065 1.578 2.553l1.949.975c.292.145.473.438.473.764 0 .47-.384.854-.854.854h-.291c-.471 0-.855-.384-.855-.854v-1.146h-2v1.146c0 1.275.845 2.344 2 2.709v2.145h2v-2.145c1.155-.366 2-1.435 2-2.709 0-1.088-.604-2.065-1.578-2.553l-1.949-.975c-.292-.145-.473-.438-.473-.764 0-.47.384-.854.854-.854h.291c.471 0 .855.384.855.854v.146h2v-.146c0-1.274-.845-2.343-2-2.709z"/><path d="m45 37c-6.065 0-11 4.935-11 11s4.935 11 11 11 11-4.935 11-11-4.935-11-11-11zm0 20c-4.963 0-9-4.037-9-9s4.037-9 9-9 9 4.037 9 9-4.037 9-9 9z"/><path d="m17 19c-6.065 0-11 4.935-11 11s4.935 11 11 11 11-4.935 11-11-4.935-11-11-11zm0 20c-4.963 0-9-4.037-9-9 0-4.962 4.037-9 9-9s9 4.038 9 9c0 4.963-4.037 9-9 9z"/><path d="m18 25.184v-2.184h-2v2h-2v10h2v2h2v-2.184c1.161-.414 2-1.514 2-2.816 0-.768-.29-1.469-.766-2 .476-.531.766-1.232.766-2 0-1.302-.839-2.402-2-2.816zm-1 7.816h-1v-2h1c.552 0 1 .449 1 1s-.448 1-1 1zm0-4h-1v-2h1c.552 0 1 .449 1 1s-.448 1-1 1z"/><path d="m59 19h-25v-15c0-1.654-1.346-3-3-3h-28c-1.654 0-3 1.346-3 3v38c0 1.654 1.346 3 3 3h25v15c0 1.654 1.346 3 3 3h28c1.654 0 3-1.346 3-3v-38c0-1.654-1.346-3-3-3zm-57 23v-38c0-.551.448-1 1-1h28c.552 0 1 .449 1 1v38c0 .552-.448 1-1 1h-28c-.552 0-1-.448-1-1zm58 18c0 .552-.448 1-1 1h-28c-.552 0-1-.448-1-1v-15h1c1.654 0 3-1.346 3-3v-21h25c.552 0 1 .449 1 1z"/><path d="m44 8v5.586l-2.293-2.293-1.414 1.414 4.707 4.707 4.707-4.707-1.414-1.414-2.293 2.293v-5.586c0-1.654-1.346-3-3-3h-7v2h7c.552 0 1 .449 1 1z"/><path d="m18 56v-5.586l2.293 2.293 1.414-1.414-4.707-4.707-4.707 4.707 1.414 1.414 2.293-2.293v5.586c0 1.654 1.346 3 3 3h7v-2h-7c-.552 0-1-.448-1-1z"/><path d="m36 23h2v2h-2z"/><path d="m40 23h18v2h-18z"/><path d="m36 27h22v2h-22z"/><path d="m36 31h22v2h-22z"/><path d="m4 5h2v2h-2z"/><path d="m8 5h22v2h-22z"/><path d="m4 9h26v2h-26z"/><path d="m4 13h26v2h-26z"/></g></svg>