<svg id="Layer_1" enable-background="new 0 0 512 512" height="512" viewBox="0 0 512 512" width="512" xmlns="http://www.w3.org/2000/svg"><g><path d="m133.923 112.263h-73.846v-33.875c0-20.392 16.531-36.923 36.923-36.923 20.392 0 36.923 16.531 36.923 36.923z" fill="#e4b591"/><path d="m97 41.465c-5.343 0-10.415 1.144-15 3.185 12.915 5.751 21.923 18.688 21.923 33.738v33.875h30v-33.875c0-20.392-16.531-36.923-36.923-36.923z" fill="#d29d77"/><path d="m489.5 504.5h-467c-8.284 0-15-6.716-15-15 0-8.284 6.716-15 15-15h467c8.284 0 15 6.716 15 15 0 8.284-6.716 15-15 15z" fill="#e69955"/><path d="m489.5 474.5h-30c8.284 0 15 6.716 15 15s-6.716 15-15 15h30c8.284 0 15-6.716 15-15s-6.716-15-15-15z" fill="#d48a48"/><path d="m37 112.263h120v362.237h-120z" fill="#fde6cd"/><path d="m127 112.263h30v362.237h-30z" fill="#f0cbac"/><path d="m37 154h120v62h-120z" fill="#45d987"/><path d="m127 154h30v62h-30z" fill="#1eb073"/><path d="m157 274.5h316v200h-316z" fill="#e4b591"/><path d="m443 274.5h30v200h-30z" fill="#d29d77"/><path d="m157 324h316v30h-316z" fill="#f0cbac"/><path d="m443 324h30v30h-30z" fill="#e4b591"/><path d="m473 274.5h-316l49.92-60h216.16z" fill="#45d987"/><path d="m423.08 214.5h-30l49.92 60h30z" fill="#1eb073"/><g fill="#95491d"><path d="m254.333 474.5h-48v-58c0-13.255 10.745-24 24-24 13.255 0 24 10.745 24 24z"/><path d="m339 474.5h-48v-58c0-13.255 10.745-24 24-24 13.255 0 24 10.745 24 24z"/><path d="m423.667 474.5h-48v-58c0-13.255 10.745-24 24-24 13.255 0 24 10.745 24 24z"/></g><g><path d="m489.5 467h-9v-192.5c0-.301.064-2.553-1.727-4.786-.003-.003-.004-.007-.007-.01l-49.92-60c-1.425-1.712-3.538-2.703-5.766-2.703h-39.215c-4.143 0-7.5 3.358-7.5 7.5s3.357 7.5 7.5 7.5h35.698l37.44 45h-284.007l37.44-45h141.429c4.143 0 7.5-3.358 7.5-7.5s-3.357-7.5-7.5-7.5h-144.945c-2.228 0-4.341.991-5.766 2.703l-36.654 44.055v-141.496c0-4.142-3.357-7.5-7.5-7.5h-15.577v-26.375c0-21.938-15.989-40.201-36.923-43.777v-27.111c0-4.142-3.357-7.5-7.5-7.5s-7.5 3.358-7.5 7.5v27.111c-20.934 3.576-36.923 21.839-36.923 43.777v26.375h-15.577c-4.143 0-7.5 3.358-7.5 7.5v303.605c0 4.142 3.357 7.5 7.5 7.5s7.5-3.358 7.5-7.5v-192.368h105v243.5h-105v-19.133c0-4.142-3.357-7.5-7.5-7.5s-7.5 3.358-7.5 7.5v19.133h-7c-12.406 0-22.5 10.093-22.5 22.5s10.094 22.5 22.5 22.5h393.598c4.143 0 7.5-3.358 7.5-7.5s-3.357-7.5-7.5-7.5h-393.598c-4.136 0-7.5-3.364-7.5-7.5s3.364-7.5 7.5-7.5h467c4.136 0 7.5 3.364 7.5 7.5s-3.364 7.5-7.5 7.5h-41.31c-4.143 0-7.5 3.358-7.5 7.5s3.357 7.5 7.5 7.5h41.31c12.406 0 22.5-10.093 22.5-22.5s-10.094-22.5-22.5-22.5zm-325-135.5h301v15h-301zm301-49.5v34.5h-301v-34.5zm-397.923-203.612c0-16.224 13.199-29.423 29.423-29.423s29.423 13.199 29.423 29.423v26.375h-58.846zm81.923 41.375v26.737h-105v-26.737zm-105 88.737v-47h105v47zm169.333 258.5v-50.5c0-9.098 7.402-16.5 16.5-16.5s16.5 7.402 16.5 16.5v50.5zm84.667 0v-50.5c0-9.098 7.402-16.5 16.5-16.5s16.5 7.402 16.5 16.5v50.5zm84.667 0v-50.5c0-9.098 7.402-16.5 16.5-16.5s16.5 7.402 16.5 16.5v50.5zm48 0v-50.5c0-17.369-14.131-31.5-31.5-31.5s-31.5 14.131-31.5 31.5v50.5h-21.667v-50.5c0-17.369-14.131-31.5-31.5-31.5s-31.5 14.131-31.5 31.5v50.5h-21.667v-50.5c0-17.369-14.131-31.5-31.5-31.5s-31.5 14.131-31.5 31.5v50.5h-34.333v-105.5h301v105.5z"/></g></g></svg>