<svg height="512pt" viewBox="0 -26 512 512" width="512pt" xmlns="http://www.w3.org/2000/svg"><g fill-rule="evenodd"><path d="m479.171875 410.363281h-469.171875v40h492v-40zm0 0" fill="#ffd89e"/><path d="m32.828125 370.363281v40h446.34375v-40zm0 0" fill="#ffecd1"/><path d="m96 130v240.363281h40v-200.363281h240v200.363281h40v-240.363281zm0 0" fill="#ffecd1"/><path d="m136 290.363281v80h40v-80c0-11-9-20-20-20s-20 9-20 20zm0 0" fill="#dca98a"/><path d="m156 270.363281c11 0 20 9 20 20v80h40v-74.453125c0-4.171875 3.414062-7.589844 7.59375-7.589844-4.777344-6.589843-7.59375-14.6875-7.59375-23.449218 0-25.589844 22.570312-43.71875 40-45.597656 17.429688 1.878906 40 20.007812 40 45.597656 0 8.757812-2.816406 16.859375-7.59375 23.449218 4.179688 0 7.59375 3.417969 7.59375 7.589844v74.453125h40v-80c0-11 9-20 20-20s20 9 20 20v-120.363281h-240v120.363281c0-11 9-20 20-20zm0 0" fill="#ffecd1"/><path d="m176 370.363281h160v-80c0-11 9-20 20-20s20 9 20 20v-120.363281h-240v120.363281c0-11 9-20 20-20s20 9 20 20zm0 0" fill="#ffd89e"/><path d="m336 290.363281v80h40v-80c0-11-9-20-20-20s-20 9-20 20zm0 0" fill="#dca98a"/><path d="m143.328125 130h225.34375v-40h-225.34375zm0 0" fill="#ffd89e"/><path d="m153.328125 90h205.34375l-102.671875-80zm0 0" fill="#78d0a9"/><path d="m256 219.273438c-17.429688 1.878906-40 20.007812-40 45.597656 0 8.757812 2.816406 16.859375 7.59375 23.449218-4.179688 0-7.59375 3.417969-7.59375 7.589844v74.453125h80v-74.453125c0-4.171875-3.414062-7.589844-7.59375-7.589844 4.777344-6.589843 7.59375-14.6875 7.59375-23.449218 0-25.589844-22.570312-43.71875-40-45.597656zm0 0" fill="#dca98a"/></g><path d="m502 400.363281h-12.828125v-30c0-5.523437-4.480469-10-10-10h-53.171875v-230.363281c0-5.519531-4.476562-10-10-10h-37.328125v-30c0-5.519531-4.476563-10-10-10h-6.5625l-99.960937-77.886719c-3.617188-2.816406-8.679688-2.816406-12.292969 0l-99.960938 77.886719h-6.566406c-5.519531 0-10 4.480469-10 10v30h-37.328125c-5.523438 0-10 4.480469-10 10v230.363281h-53.171875c-5.523437 0-10 4.476563-10 10v30h-12.828125c-5.523438 0-10 4.476563-10 10v40c0 5.523438 4.476562 10 10 10h492c5.523438 0 10-4.476562 10-10v-40c0-5.523437-4.476562-10-10-10zm-246-377.6875 73.566406 57.324219h-147.132812zm-150 117.324219h104.996094c5.523437 0 10-4.476562 10-10 0-5.519531-4.476563-10-10-10h-57.667969v-20h205.3125c.007813 0 .015625.003906.023437.003906h.007813v20h-57.675781c-5.523438 0-10 4.476563-10 10 0 5.519532 4.476562 10 10 10h105.003906v220.359375h-20v-190.363281c0-5.519531-4.476562-10-10-10h-240c-5.523438 0-10 4.480469-10 10v190.363281h-20zm240 220.363281v-70c0-5.515625 4.484375-10 10-10s10 4.484375 10 10v70zm-40 0v-64.453125c0-4.269531-1.53125-8.1875-4.070312-11.238281 2.679687-6.199219 4.070312-12.902344 4.070312-19.800781 0-14.230469-5.800781-27.972656-16.328125-38.695313-9.164063-9.332031-21.351563-15.628906-32.601563-16.84375-.710937-.074219-1.429687-.074219-2.144531 0-11.246093 1.214844-23.433593 7.511719-32.597656 16.84375-10.527344 10.722657-16.328125 24.464844-16.328125 38.695313 0 6.898437 1.390625 13.601562 4.070312 19.800781-2.542968 3.050781-4.070312 6.96875-4.070312 11.238281v64.453125h-20v-70c0-16.542969-13.457031-30-30-30-3.507812 0-6.871094.609375-10 1.71875v-82.082031h220v82.085938c-3.128906-1.113282-6.496094-1.722657-10-1.722657-16.542969 0-30 13.457031-30 30v70zm-40 0v-50c0-5.523437-4.476562-10-10-10s-10 4.476563-10 10v50h-20v-62.335937c2.773438-.6875 5.167969-2.546875 6.503906-5.164063 1.707032-3.347656 1.394532-7.371093-.8125-10.414062-3.722656-5.132813-5.691406-11.214844-5.691406-17.578125 0-19.46875 17.125-33.472656 30-35.511719 12.875 2.039063 30 16.042969 30 35.511719 0 6.363281-1.96875 12.445312-5.691406 17.578125-2.207032 3.042969-2.519532 7.066406-.8125 10.414062 1.335937 2.617188 3.730468 4.476563 6.503906 5.164063v62.335937zm-120 0v-70c0-5.515625 4.484375-10 10-10s10 4.484375 10 10v70zm-103.171875 20h426.34375v20h-426.34375zm449.171875 60h-472v-20h472zm0 0"/><path d="m256 140c5.523438 0 10-4.476562 10-10 0-5.519531-4.476562-10-10-10h-.007812c-5.523438 0-9.996094 4.480469-9.996094 10 0 5.523438 4.480468 10 10.003906 10zm0 0"/></svg>